<?xml version="1.0" encoding="UTF-8"?>
<svg width="113px" height="38px" viewBox="0 0 113 38" version="1.1" xmlns="http://www.w3.org/2000/svg" xmlns:xlink="http://www.w3.org/1999/xlink">
    <!-- Generator: Sketch 53.2 (72643) - https://sketchapp.com -->
    <title>Download_on_the_App_Store_Badge_US-UK_blk_092917</title>
    <desc>Created with Sketch.</desc>
    <defs>
        <polygon id="path-1" points="0 0.038 112.6836 0.038 112.6836 38 0 38"></polygon>
    </defs>
    <g id="Page-1" stroke="none" stroke-width="1" fill="none" fill-rule="evenodd">
        <g id="Group-6" transform="translate(-1090.000000, -4262.000000)">
            <g id="Download_on_the_App_Store_Badge_US-UK_blk_092917" transform="translate(1090.000000, 4262.000000)">
                <g id="Group-3">
                    <mask id="mask-2" fill="white">
                        <use xlink:href="#path-1"></use>
                    </mask>
                    <g id="Clip-2"></g>
                    <path d="M103.709517,0 L8.97879167,0 C8.6332,0 8.29231667,0 7.94766667,0.0019 C7.65951667,0.0038 7.37325,0.0095 7.082275,0.01425 C6.455125,0.02945 5.82138333,0.0684 5.195175,0.18145 C4.5652,0.29355 3.97948333,0.48355 3.40506667,0.7771 C2.84195,1.06875 2.32685833,1.44685 1.88145,1.89715 C1.43039167,2.34745 1.05749167,2.869 0.771225,3.4371 C0.478366667,4.01565 0.292858333,4.6094 0.182683333,5.24495 C0.0696833333,5.8748 0.0301333333,6.5113 0.014125,7.14685 C0.00565,7.4385 0.00470833333,7.7311 0,8.0218 C0,8.36665 0,8.7115 0,9.0592 L0,28.94175 C0,29.2923 0,29.63525 0,29.98105 C0.00470833333,30.27555 0.00565,30.5615 0.014125,30.856 C0.0301333333,31.4925 0.0696833333,32.129 0.182683333,32.7579 C0.292858333,33.3944 0.478366667,33.991 0.771225,34.56765 C1.05749167,35.1329 1.43039167,35.65445 1.88145,36.10095 C2.32685833,36.55505 2.84195,36.9322 3.40506667,37.221 C3.97948333,37.5174 4.5652,37.7055 5.195175,37.82045 C5.82138333,37.9335 6.455125,37.97055 7.082275,37.98765 C7.37325,37.9943 7.65951667,37.9981 7.94766667,37.9981 C8.29231667,38 8.6332,38 8.97879167,38 L103.709517,38 C104.049458,38 104.392225,38 104.730283,37.9981 C105.018433,37.9981 105.312233,37.9943 105.599442,37.98765 C106.230358,37.97055 106.863158,37.9335 107.482775,37.82045 C108.113692,37.7055 108.699408,37.5174 109.279475,37.221 C109.84165,36.9322 110.356742,36.55505 110.803092,36.10095 C111.250383,35.65445 111.624225,35.1329 111.914258,34.56765 C112.20335,33.991 112.391683,33.3944 112.49715,32.7579 C112.613917,32.129 112.6497,31.4925 112.673242,30.856 C112.676067,30.5615 112.676067,30.27555 112.676067,29.98105 C112.6836,29.63525 112.6836,29.2923 112.6836,28.94175 L112.6836,9.0592 C112.6836,8.7115 112.6836,8.36665 112.676067,8.0218 C112.676067,7.7311 112.676067,7.4385 112.673242,7.14685 C112.6497,6.5113 112.613917,5.8748 112.49715,5.24495 C112.391683,4.6094 112.20335,4.01565 111.914258,3.4371 C111.624225,2.869 111.250383,2.34745 110.803092,1.89715 C110.356742,1.44685 109.84165,1.06875 109.279475,0.7771 C108.699408,0.48355 108.113692,0.29355 107.482775,0.18145 C106.863158,0.0684 106.230358,0.02945 105.599442,0.01425 C105.312233,0.0095 105.018433,0.0038 104.730283,0.0019 C104.392225,0 104.049458,0 103.709517,0" id="Fill-1" fill="#A9AAA9" mask="url(#mask-2)"></path>
                </g>
                <path d="M8.12770631,36.9981177 C7.84060245,36.9981177 7.56102918,36.9943532 7.27674929,36.9877653 C6.74960778,36.9736484 6.12550988,36.9435324 5.51647317,36.8343616 C4.94226545,36.7308376 4.43206778,36.5614347 3.95764041,36.3186239 C3.46626922,36.0701663 3.0247882,35.7483007 2.64261061,35.3624386 C2.25290242,34.9793998 1.93191089,34.5408345 1.68151867,34.0476838 C1.43771572,33.5724145 1.27110135,33.0623235 1.17037967,32.4882359 C1.05553812,31.8548573 1.02635708,31.2130085 1.01411986,30.7236223 C1.00753059,30.5250444 1,29.8643731 1,29.8643731 L1,8.12339224 C1,8.12339224 1.00847192,7.4730733 1.01411986,7.28202447 C1.02635708,6.78887378 1.05553812,6.14702499 1.16943834,5.52023424 C1.27016003,4.9423821 1.4367744,4.43229112 1.68151867,3.95608073 C1.93096956,3.46198892 2.25196109,3.02060023 2.63696266,2.64038482 C3.02572953,2.25075813 3.46909319,1.92795148 3.95669909,1.67761163 C4.44053969,1.43197741 4.94979605,1.26445676 5.51270788,1.1656384 C6.14716034,1.05270313 6.7891434,1.02352818 7.27863194,1.01129353 L8.12770631,1 L104.865704,1 L105.725133,1.01223465 C106.208033,1.02352818 106.850957,1.05270313 107.475055,1.16469727 C108.041732,1.26445676 108.555695,1.43291854 109.048008,1.68043501 C109.530907,1.92795148 109.972388,2.25075813 110.357389,2.63662031 C110.744274,3.01871798 111.065265,3.46293004 111.321305,3.95796298 C111.564167,4.43887901 111.728899,4.94896999 111.825855,5.50988184 C111.934107,6.10373314 111.967995,6.7135836 111.988704,7.28578898 C111.991528,7.55212799 111.991528,7.83917181 111.991528,8.12339224 C112,8.47631496 112,8.8122974 112,9.15110321 L112,28.8479557 C112,29.1895849 112,29.523685 111.991528,29.8596675 C111.991528,30.1655338 111.991528,30.4459898 111.987763,30.7349158 C111.967995,31.2892398 111.934107,31.8981491 111.826796,32.4788246 C111.728899,33.0557356 111.564167,33.5658266 111.318481,34.0505072 C111.065265,34.5398933 110.742391,34.981282 110.363037,35.3549095 C109.973329,35.7483007 109.531848,36.0692251 109.046125,36.3167416 C108.556636,36.5651992 108.058676,36.7298965 107.475055,36.8343616 C106.872607,36.9435324 106.24851,36.9736484 105.71572,36.9877653 C105.440853,36.9943532 105.150926,36.9981177 104.870411,36.9981177 L103.850016,37 L8.12770631,36.9981177" id="Fill-4" fill="#000000"></path>
                <path d="M23.1990214,19.1275977 C23.1750322,16.4637467 25.3599682,15.1671649 25.4607229,15.1061607 C24.2228803,13.2857173 22.3037445,13.0368588 21.6301279,13.0174924 C20.0190134,12.8460996 18.4568369,13.990655 17.6354468,13.990655 C16.7987036,13.990655 15.5349527,13.0339539 14.1733259,13.0630035 C12.421155,13.0901165 10.7802939,14.1146001 9.88117882,15.7045831 C8.02537454,18.9465217 9.41003099,23.7116291 11.1871507,26.3319057 C12.0766701,27.6158992 13.1158821,29.0499826 14.4765494,28.9986616 C15.80747,28.9434673 16.3045262,28.1416975 17.9108428,28.1416975 C19.5027659,28.1416975 19.9691159,28.9986616 21.356651,28.966707 C22.784488,28.9434673 23.6845627,27.6769035 24.543376,26.38129 C25.5710732,24.9104105 25.9836873,23.460834 26,23.3872416 C25.9664151,23.3756217 23.2258893,22.3211202 23.1990214,19.1275977" id="Fill-5" fill="#FFFFFE"></path>
                <path d="M20.9651576,11.4709141 C21.6432595,10.5432822 22.1068412,9.28158357 21.9786745,8 C20.9969721,8.04772383 19.769844,8.74270204 19.0626546,9.65044898 C18.4372738,10.4498231 17.8791577,11.7602398 18.0227772,12.992111 C19.1253745,13.0825874 20.2579683,12.3836322 20.9651576,11.4709141" id="Fill-6" fill="#FFFFFE"></path>
                <path d="M36.2868778,24.2601063 L39.6823529,24.2601063 L38.0081448,18.9964568 L37.961991,18.9964568 L36.2868778,24.2601063 Z M40.1266968,25.7569657 L35.8434389,25.7569657 L34.8144796,29 L33,29 L37.0579186,17 L38.9429864,17 L43,29 L41.1547511,29 L40.1266968,25.7569657 L40.1266968,25.7569657 Z" id="Fill-7" fill="#FFFFFE"></path>
                <path d="M50.2084652,24.5675698 C50.2084652,22.7561558 49.3192637,21.5653463 47.9638879,21.5653463 C46.6319615,21.5653463 45.7361942,22.7808614 45.7361942,24.5675698 C45.7361942,26.3700898 46.6319615,27.5776991 47.9638879,27.5776991 C49.3192637,27.5776991 50.2084652,26.3947954 50.2084652,24.5675698 Z M52,24.5675698 C52,27.347443 50.5874077,29.1341514 48.4553875,29.1341514 C47.2453981,29.1341514 46.2849103,28.5639463 45.784031,27.5688051 L45.743698,27.5688051 L45.743698,32 L44,32 L44,20.092893 L45.6874194,20.092893 L45.6874194,21.5811579 L45.7193106,21.5811579 C46.2042443,20.6215927 47.2378942,20 48.4234963,20 C50.5789659,20 52,21.7946142 52,24.5675698 L52,24.5675698 Z" id="Fill-8" fill="#FFFFFE"></path>
                <path d="M59.2082552,24.5675698 C59.2082552,22.7561558 58.3198874,21.5653463 56.9643527,21.5653463 C55.6322702,21.5653463 54.7363977,22.7808614 54.7363977,24.5675698 C54.7363977,26.3700898 55.6322702,27.5776991 56.9643527,27.5776991 C58.3198874,27.5776991 59.2082552,26.3947954 59.2082552,24.5675698 Z M61,24.5675698 C61,27.347443 59.5881801,29.1341514 57.4559099,29.1341514 C56.2457786,29.1341514 55.2851782,28.5639463 54.7842402,27.5688051 L54.7439024,27.5688051 L54.7439024,32 L53,32 L53,20.092893 L54.6876173,20.092893 L54.6876173,21.5811579 L54.7195122,21.5811579 C55.2045028,20.6215927 56.2373358,20 57.424015,20 C59.5797373,20 61,21.7946142 61,24.5675698 L61,24.5675698 Z" id="Fill-9" fill="#FFFFFE"></path>
                <path d="M67.7975441,25.5707606 C67.9269521,26.7228803 69.0576196,27.4784913 70.6010705,27.4784913 C72.0812343,27.4784913 73.1457809,26.7228803 73.1457809,25.6839152 C73.1457809,24.782419 72.5034635,24.2428304 70.9836272,23.8734414 L69.4628463,23.5105985 C67.309194,22.9953242 66.3088791,21.9984414 66.3088791,20.3796758 C66.3088791,18.3765586 68.0733627,17 70.5774559,17 C73.0560453,17 74.7553526,18.3765586 74.8120277,20.3796758 L73.0399874,20.3796758 C72.934194,19.22101 71.965995,18.5215087 70.5528967,18.5215087 C69.1379093,18.5215087 68.1706549,19.2294264 68.1706549,20.2590399 C68.1706549,21.0801122 68.7884131,21.563591 70.3006927,21.9339152 L71.5928841,22.2471945 C73.9996851,22.8110973 75,23.7677681 75,25.4669576 C75,27.6393392 73.2515743,29 70.4716625,29 C67.8702771,29 66.1133501,27.6711347 66,25.5707606 L67.7975441,25.5707606" id="Fill-10" fill="#FFFFFE"></path>
                <path d="M78.2446483,18 L78.2446483,20.0947724 L80,20.0947724 L80,21.5343172 L78.2446483,21.5343172 L78.2446483,26.4152738 C78.2446483,27.1741643 78.5963303,27.5272048 79.3679918,27.5272048 C79.5606524,27.5272048 79.8685015,27.5017781 79.9908257,27.4851529 L79.9908257,28.9158962 C79.7808359,28.9667496 79.3598369,29 78.9388379,29 C77.0703364,29 76.3414883,28.3261913 76.3414883,26.6098862 L76.3414883,21.5343172 L75,21.5343172 L75,20.0947724 L76.3414883,20.0947724 L76.3414883,18 L78.2446483,18" id="Fill-11" fill="#FFFFFE"></path>
                <path d="M87.2358831,24.5004851 C87.2358831,22.6048291 86.4022587,21.4852862 84.9995343,21.4852862 C83.5968099,21.4852862 82.7641169,22.6125903 82.7641169,24.5004851 C82.7641169,26.4039021 83.5968099,27.5137437 84.9995343,27.5137437 C86.4022587,27.5137437 87.2358831,26.4039021 87.2358831,24.5004851 Z M81,24.5004851 C81,21.7365528 82.5629293,20 84.9995343,20 C87.4445221,20 89,21.7365528 89,24.5004851 C89,27.2712084 87.4529049,29 84.9995343,29 C82.5470951,29 81,27.2712084 81,24.5004851 L81,24.5004851 Z" id="Fill-12" fill="#FFFFFE"></path>
                <path d="M91,20.0924792 L92.5317495,20.0924792 L92.5317495,21.6085483 L92.5688985,21.6085483 C92.8142549,20.601115 93.5278618,20 94.449676,20 C94.6803456,20 94.8730022,20.0344338 95,20.0678837 L95,21.7777656 C94.8730022,21.7187363 94.5904968,21.6675776 94.2786177,21.6675776 C93.2453564,21.6675776 92.6060475,22.4644731 92.6060475,23.716878 L92.6060475,29 L91,29 L91,20.0924792" id="Fill-13" fill="#FFFFFE"></path>
                <path d="M96.8232378,23.6904172 L101.200943,23.6904172 C101.159352,22.3458014 100.302382,21.4610327 99.0536815,21.4610327 C97.8136864,21.4610327 96.9151251,22.363264 96.8232378,23.6904172 Z M102.899408,26.3117387 C102.657599,27.9066509 101.110023,29 99.1291259,29 C96.5814291,29 95,27.2886709 95,24.5422011 C95,21.7870001 96.5901342,20 99.0536815,20 C101.476605,20 103,21.669613 103,24.3326506 L103,24.9506306 L96.8145327,24.9506306 L96.8145327,25.0592864 C96.8145327,26.5620351 97.7556523,27.5467285 99.170717,27.5467285 C100.168903,27.5467285 100.952364,27.0713593 101.193205,26.3117387 L102.899408,26.3117387 L102.899408,26.3117387 Z" id="Fill-14" fill="#FFFFFE"></path>
                <path d="M33.9339109,13.1513323 L35.067298,13.1513323 C36.3246021,13.1513323 37.0489623,12.3700352 37.0489623,10.9934641 C37.0489623,9.63800905 36.3125126,8.84766214 35.067298,8.84766214 L33.9339109,8.84766214 L33.9339109,13.1513323 Z M35.1710659,8 C36.9542615,8 38,9.09301156 38,10.9813977 C38,12.8979387 36.9623212,14 35.1710659,14 L33,14 L33,8 L35.1710659,8 L35.1710659,8 Z" id="Fill-15" fill="#FFFFFE"></path>
                <path d="M42.1391571,11.9978619 C42.1391571,11.1631388 41.7256887,10.6756468 41.0014128,10.6756468 C40.2733694,10.6756468 39.8646103,11.1631388 39.8646103,11.9978619 C39.8646103,12.839427 40.2733694,13.3243532 41.0014128,13.3243532 C41.7256887,13.3243532 42.1391571,12.836006 42.1391571,11.9978619 Z M39,11.9978619 C39,10.7568954 39.7628915,10 41.0014128,10 C42.2361667,10 43,10.7568954 43,11.9978619 C43,13.2465256 42.2399341,14 41.0014128,14 C39.7591241,14 39,13.2465256 39,11.9978619 L39,11.9978619 Z" id="Fill-16" fill="#FFFFFE"></path>
                <polyline id="Fill-17" fill="#FFFFFE" points="48.8107675 14 47.9243711 14 47.0302836 11.0535199 46.9620253 11.0535199 46.0717834 14 45.1940394 14 44 10 44.8671687 10 45.6420445 13.0521874 45.7064573 13.0521874 46.5966992 10 47.4157988 10 48.3060407 13.0521874 48.3733376 13.0521874 49.1453293 10 50 10 48.8107675 14"></polyline>
                <path d="M51,10.075817 L51.8943515,10.075817 L51.8943515,10.6989107 L51.9633891,10.6989107 C52.1924686,10.2631808 52.6600418,10 53.3692469,10 C54.4205021,10 55,10.5254902 55,11.459695 L55,14 L54.0700837,14 L54.0700837,11.6540305 C54.0700837,11.0230937 53.7416318,10.7093682 53.0533473,10.7093682 C52.3661088,10.7093682 51.9288703,11.091939 51.9288703,11.7037037 L51.9288703,14 L51,14 L51,10.075817" id="Fill-18" fill="#FFFFFE"></path>
                <polygon id="Fill-19" fill="#FFFFFE" points="56.0555 14 56.9445 14 56.9445 8 56.0555 8"></polygon>
                <path d="M61.1391571,11.9978619 C61.1391571,11.1631388 60.7256887,10.6756468 60.0014128,10.6756468 C59.2733694,10.6756468 58.8646103,11.1631388 58.8646103,11.9978619 C58.8646103,12.839427 59.2733694,13.3243532 60.0014128,13.3243532 C60.7256887,13.3243532 61.1391571,12.836006 61.1391571,11.9978619 Z M58,11.9978619 C58,10.7568954 58.7628915,10 60.0014128,10 C61.2361667,10 62,10.7568954 62,11.9978619 C62,13.2465256 61.2399341,14 60.0014128,14 C58.7591241,14 58,13.2465256 58,11.9978619 L58,11.9978619 Z" id="Fill-20" fill="#FFFFFE"></path>
                <path d="M65.0632442,12.5145798 L65.0632442,12.1912521 L63.8999735,12.2512864 C63.2437153,12.287307 62.9462821,12.4682676 62.9462821,12.8087479 C62.9462821,13.1560892 63.3178089,13.3584906 63.8290553,13.3584906 C64.5382376,13.3584906 65.0632442,12.9931389 65.0632442,12.5145798 Z M62,12.8439108 C62,12.1492281 62.6382641,11.7478559 63.7729558,11.6912521 L65.0632442,11.6312178 L65.0632442,11.2975986 C65.0632442,10.890223 64.7308812,10.6595197 64.0883832,10.6595197 C63.5633766,10.6595197 63.1992591,10.8156089 63.0944694,11.0883362 L62.1841757,11.0883362 C62.2804975,10.4253859 63.0500132,10 64.1317809,10 C65.326806,10 66,10.4819897 66,11.2975986 L66,13.9365352 L65.0949987,13.9365352 L65.0949987,13.3936535 L65.0198465,13.3936535 C64.7361736,13.780446 64.2154009,14 63.5887801,14 C62.6700185,14 62,13.5497427 62,12.8439108 L62,12.8439108 Z" id="Fill-21" fill="#FFFFFE"></path>
                <path d="M67.8732461,11.7951066 C67.8732461,12.6996054 68.301308,13.2441989 69.0175981,13.2441989 C69.7300832,13.2441989 70.1705113,12.6920284 70.1705113,11.798895 C70.1705113,10.9104972 69.725327,10.3498027 69.0175981,10.3498027 C68.3060642,10.3498027 67.8732461,10.8981847 67.8732461,11.7951066 Z M67,11.7951066 C67,10.447356 67.6963139,9.59400158 68.7778835,9.59400158 C69.3648038,9.59400158 69.859453,9.87245462 70.0915577,10.3422257 L70.1552913,10.3422257 L70.1552913,8 L71,8 L71,13.9299132 L70.1904875,13.9299132 L70.1904875,13.2555643 L70.1229489,13.2555643 C69.8680143,13.7224941 69.3676576,14 68.7778835,14 C67.6887039,14 67,13.1466456 67,11.7951066 L67,11.7951066 Z" id="Fill-22" fill="#FFFFFE"></path>
                <path d="M78.1391571,11.9978619 C78.1391571,11.1631388 77.7256887,10.6756468 77.0014128,10.6756468 C76.2733694,10.6756468 75.8646103,11.1631388 75.8646103,11.9978619 C75.8646103,12.839427 76.2733694,13.3243532 77.0014128,13.3243532 C77.7256887,13.3243532 78.1391571,12.836006 78.1391571,11.9978619 Z M75,11.9978619 C75,10.7568954 75.7638333,10 77.0014128,10 C78.2361667,10 79,10.7568954 79,11.9978619 C79,13.2465256 78.2399341,14 77.0014128,14 C75.7600659,14 75,13.2465256 75,11.9978619 L75,11.9978619 Z" id="Fill-23" fill="#FFFFFE"></path>
                <path d="M80,10.075817 L80.8943515,10.075817 L80.8943515,10.6989107 L80.9633891,10.6989107 C81.1924686,10.2631808 81.6600418,10 82.3692469,10 C83.4205021,10 84,10.5254902 84,11.459695 L84,14 L83.0700837,14 L83.0700837,11.6540305 C83.0700837,11.0230937 82.7416318,10.7093682 82.0533473,10.7093682 C81.3661088,10.7093682 80.9288703,11.091939 80.9288703,11.7037037 L80.9288703,14 L80,14 L80,10.075817" id="Fill-24" fill="#FFFFFE"></path>
                <path d="M88.2434109,9 L88.2434109,10.0099133 L89,10.0099133 L89,10.6728625 L88.2434109,10.6728625 L88.2434109,12.7218977 C88.2434109,13.1396707 88.3945736,13.322889 88.7372093,13.322889 C88.8434109,13.322889 88.903876,13.314923 89,13.3043016 L89,13.9592848 C88.8875969,13.9814126 88.7589147,14 88.6248062,14 C87.8589147,14 87.5542636,13.6919809 87.5542636,12.9237033 L87.5542636,10.6728625 L87,10.6728625 L87,10.0099133 L87.5542636,10.0099133 L87.5542636,9 L88.2434109,9" id="Fill-25" fill="#FFFFFE"></path>
                <path d="M90,8 L90.9094194,8 L90.9094194,10.3775755 L90.9816774,10.3775755 C91.2067097,9.89458553 91.6980645,9.60517489 92.3989677,9.60517489 C93.3889032,9.60517489 94,10.1878294 94,11.214183 L94,14 L93.0812903,14 L93.0812903,11.4240537 C93.0812903,10.7350264 92.7354839,10.385242 92.0872258,10.385242 C91.3357419,10.385242 90.9166452,10.8260661 90.9166452,11.4796358 L90.9166452,14 L90,14 L90,8" id="Fill-26" fill="#FFFFFE"></path>
                <path d="M95.8861689,11.644644 L98.1138311,11.644644 C98.0932681,11.0399829 97.6722154,10.6465683 97.027907,10.6465683 C96.3845777,10.6465683 95.9351285,11.0434039 95.8861689,11.644644 Z M98.9471236,12.8856104 C98.7493268,13.5757965 98.0443084,14 97.0367197,14 C95.7735618,14 95,13.2431046 95,12.0115459 C95,10.7808424 95.7902081,10 97.0328029,10 C98.2597307,10 99,10.7320932 99,11.9414154 L99,12.2065427 L95.8861689,12.2065427 L95.8861689,12.2493051 C95.9155447,12.9240966 96.3649939,13.3525764 97.0602203,13.3525764 C97.5880049,13.3525764 97.9483476,13.1858029 98.1099143,12.8856104 L98.9471236,12.8856104 L98.9471236,12.8856104 Z" id="Fill-27" fill="#FFFFFE"></path>
            </g>
        </g>
    </g>
</svg>