<?xml version="1.0" encoding="utf-8"?>
<!-- Generator: Adobe Illustrator 24.0.0, SVG Export Plug-In . SVG Version: 6.00 Build 0)  -->
<svg version="1.1" id="Layer_1" xmlns="http://www.w3.org/2000/svg" xmlns:xlink="http://www.w3.org/1999/xlink" x="0px" y="0px"
	 viewBox="0 0 792 612" style="enable-background:new 0 0 792 612;" xml:space="preserve">
<style type="text/css">
	.st0{fill:#FFFFFF;}
</style>
<g>
	<g>
		<g>
			<rect x="455.73" y="306.18" class="st0" width="30.84" height="93.46"/>
			<polygon class="st0" points="569.21,347.57 565.2,342.36 531.56,306.18 505.26,306.18 505.26,399.64 535.56,399.64 
				535.56,355.18 539.57,360.39 575.89,399.64 599.25,399.64 599.25,306.18 569.21,306.18 			"/>
			<path class="st0" d="M694.43,306.18h-76.5v93.46h16.09h13.38c9.7,0,17.57-7.86,17.57-17.57v-9.67h-12.3v-7.75h14.37
				c10.1,0,18.29-7.36,18.29-16.45v-7.05h-32.66v-7.88h30.86c0,0,0.01,0,0.01,0h0.92c10.4,0,18.83-7.58,18.83-16.94v-10.16H694.43z"
				/>
			<path class="st0" d="M426.25,372.54h-28.59v-49.58c0-9.26-7.51-16.77-16.77-16.77h-14.47v93.46h76.77v-10.16
				C443.19,380.12,435.61,372.54,426.25,372.54z"/>
		</g>
		<g>
			<polygon points="323.05,306.18 308.23,335.29 305.16,342.23 302.09,335.29 287.27,306.18 254.16,306.18 288.87,374.27 
				288.87,399.64 319.18,399.64 319.18,374.27 353.89,306.18 			"/>
			<path d="M88.72,316.34c0,9.36,8.43,16.94,18.83,16.94h31.78v7.88h-32.66v7.05c0,9.08,8.19,16.45,18.29,16.45h14.37v18.21
				c0,9.26,8.35,16.77,18.65,16.77h16.09v-93.46H88.72V316.34z"/>
			<path d="M250.84,372.54h-28.59v-49.58c0-9.26-7.51-16.77-16.77-16.77h-14.47v93.46h76.77v-10.16
				C267.78,380.12,260.19,372.54,250.84,372.54z"/>
		</g>
	</g>
	<path d="M248.84,266.08c48.42,36.87,189.49-33.15,189.49-33.15c-135.16,43.73-168.39,32.05-175.43,19.22
		C259.31,245.64,248.84,266.08,248.84,266.08z"/>
	<g>
		<path class="st0" d="M453.51,228.87l-27.86-7.85c-1.41-0.4-1.56-0.79-0.4-1.17c0.16-0.05,0.49-0.13,0.98-0.24l18.21-3.85
			c2.07-0.44,3.64-0.32,4.65,0.33l10.38,6.61c1.42,0.9,3.13,1.21,4.78,0.86l10.19-2.16l-7.72-5.05c-0.22-0.47,0.25-0.89,1.42-1.23
			c0.16-0.05,0.45-0.12,0.87-0.21l10.15-2.15c0,0,1.07-0.41,2.25,0.48l6.7,5.25l18.78-3.98c1.19-0.25,1.55-0.18,1.08,0.22l-4.1,3.43
			c-0.29,0.24-0.78,0.45-1.49,0.63c-0.07,0.02-0.22,0.05-0.45,0.1l-46.28,9.85C454.65,228.94,453.94,228.99,453.51,228.87z"/>
	</g>
</g>
</svg>
