<svg xmlns="http://www.w3.org/2000/svg" width="512" height="512">
  <path d="M451.078 108.973C379.903 37.799 268.292 27.69 185.687 84.936c-4.539 3.146-5.669 9.376-2.522 13.916 3.146 4.539 9.376 5.667 13.915 2.523 19.204-13.309 40.146-22.578 61.752-27.926-3.94 4.874-7.719 10.422-11.311 16.639-14.325 24.798-24.969 58.72-30.78 98.097-.807 5.463 2.969 10.546 8.433 11.353 5.458.799 10.546-2.969 11.353-8.433a369.245 369.245 0 014.357-24.052h126.279c5.218 24.223 8.247 51.038 8.83 79h-28.004c-5.522 0-10 4.477-10 10 0 5.522 4.478 10 10 10h28.004c-.583 27.962-3.612 54.777-8.83 79h-49.495c-5.522 0-10 4.478-10 10s4.478 10 10 10h44.517c-2.746 9.641-5.872 18.742-9.37 27.177-12.671 30.56-28.904 49.015-45.053 51.519-2.48.053-4.961.062-7.442.018-28.217-4.245-54.965-56.755-64.53-127.995a9.997 9.997 0 00-11.242-8.58c-5.474.735-9.315 5.769-8.58 11.242 5.469 40.732 16.037 75.948 30.562 101.841 3.817 6.805 7.852 12.837 12.07 18.096-23.639-5.789-46.399-16.224-66.799-31.437-4.428-3.299-10.692-2.389-13.994 2.039-3.302 4.427-2.389 10.692 2.039 13.994 35.846 26.73 79.455 41.079 124.141 41.086h.033c4.74 0 9.494-.162 14.251-.487 50.097-3.425 97.263-24.888 132.81-60.435C490.365 363.844 512 311.611 512 256.052c0-55.559-21.635-107.792-60.922-147.079zm40.655 137.079h-95.737c-.558-27.744-3.442-54.505-8.419-79h82.115c13.024 24.171 20.584 51.018 22.041 79zm-245.869-99c5.169-18.181 11.608-34.208 18.975-46.96 11.935-20.661 25.842-32.04 39.16-32.04 17.366 0 35.158 18.889 48.814 51.823 3.498 8.435 6.624 17.536 9.37 27.177H245.864zm125.425-34.837c-6.487-15.645-13.939-28.626-22.115-38.729 32.312 8.008 62.79 24.658 87.762 49.63a190.38 190.38 0 0120.283 23.936h-74.302c-3.299-12.441-7.185-24.123-11.628-34.837zm65.646 276.772c-24.743 24.744-55.162 41.242-87.434 49.226 8.048-10.044 15.387-22.889 21.788-38.325 4.443-10.715 8.329-22.396 11.628-34.837h74.302a189.996 189.996 0 01-20.284 23.936zm-49.357-43.935c4.977-24.495 7.861-51.256 8.419-79h95.737c-1.457 27.982-9.016 54.829-22.041 79h-82.115z" data-original="#000000" class="active-path" data-old_color="#000000" fill="#00AEEF"/>
  <path d="M282.74 347.982a10.076 10.076 0 00-7.07-2.93 10.057 10.057 0 00-7.07 2.93c-1.87 1.86-2.93 4.44-2.93 7.07s1.06 5.21 2.93 7.069c1.86 1.86 4.44 2.931 7.07 2.931s5.21-1.07 7.07-2.931c1.859-1.859 2.93-4.439 2.93-7.069s-1.071-5.21-2.93-7.07zM311.938 249.918c-15.694-20.488-40.472-32.719-66.279-32.719h-36.305l-36.643-88.133a10 10 0 00-9.233-6.161h-37.761c-5.522 0-10 4.477-10 10v84.294H79.224l-25.547-30.608a10.003 10.003 0 00-7.678-3.592H10a10 10 0 00-8.69 14.948l33.058 58.052L1.31 314.051A10 10 0 0010 329h36a9.997 9.997 0 007.677-3.592L79.226 294.8h36.493v84.399c0 5.522 4.478 10 10 10h37.761a10 10 0 009.235-6.165l36.644-88.234h36.301v-.001c25.808 0 50.585-12.231 66.279-32.719a9.997 9.997 0 00-.001-12.162zm-176.22-107.013h21.089l30.889 74.294h-51.978v-74.294zm21.086 226.293h-21.086v-74.46h52.009l-30.923 74.46zm88.857-94.399H76.098a10.005 10.005 0 00-9.139 3.484l-25.638 30.716H27.202l27.363-48.052a9.998 9.998 0 000-9.896l-27.363-48.052h14.119l25.638 30.716a9.997 9.997 0 009.146 3.484H245.66c16.918 0 33.254 6.912 45.085 18.8-11.831 11.888-28.167 18.8-45.084 18.8zM18.57 125.832c-1.859-1.86-4.439-2.93-7.069-2.93s-5.21 1.07-7.07 2.93c-1.86 1.86-2.93 4.44-2.93 7.07s1.069 5.21 2.93 7.07c1.86 1.87 4.44 2.93 7.07 2.93s5.21-1.06 7.069-2.93a10.059 10.059 0 002.931-7.07 10.08 10.08 0 00-2.931-7.07z" data-original="#000000" class="active-path" data-old_color="#000000" fill="#00AEEF"/>
  <path d="M90.5 122.905H48c-5.522 0-10 4.477-10 10s4.477 10 10 10h42.5c5.522 0 10-4.477 10-10s-4.477-10-10-10zM80.718 369.198H19c-5.522 0-10 4.478-10 10s4.478 10 10 10h61.718c5.522 0 10-4.478 10-10s-4.478-10-10-10z" data-original="#000000" class="active-path" data-old_color="#000000" fill="#00AEEF"/>
</svg>