<svg xmlns="http://www.w3.org/2000/svg" viewBox="0 0 277.169 277.169" width="512" height="512">
  <path d="M129.774 197.433c-23.1 0-42.223-8.577-51.557-13.69a5.433 5.433 0 00-4.781-.218 5.434 5.434 0 00-3.1 3.639l-9.79 38.182a5.433 5.433 0 002.638 6.108c13.282 7.343 33.477 12.804 52.672 14.381v25.895a5.434 5.434 0 005.439 5.439h32.303a5.434 5.434 0 005.439-5.439v-29.104c35.251-7.5 57.757-32.439 57.757-64.551 0-32.297-17.285-52.182-57.763-66.471-25.825-9.312-35.892-15.654-35.892-22.621 0-8.365 8.246-13.163 22.621-13.163 21.985 0 36.529 6.989 44.638 10.889a5.447 5.447 0 007.615-3.503l9.796-36.877a5.433 5.433 0 00-2.997-6.342c-9.083-4.15-23.312-9.633-44.47-11.009V5.439A5.434 5.434 0 00154.903 0h-31.987a5.434 5.434 0 00-5.439 5.439v26.586C83.336 39.966 62.33 63.594 62.33 94.531c0 38.878 33.369 55.092 62.451 64.872 25.895 8.632 31.198 15.529 31.198 23.236.006 10.905-13.532 14.794-26.205 14.794zm-1.539-48.348c-38.574-12.972-55.027-29.289-55.027-54.554 0-27.092 18.955-46.809 50.703-52.737a5.438 5.438 0 004.438-5.347V10.884h21.109v23.279a5.443 5.443 0 005.276 5.439c18.917.566 31.906 4.514 41.359 8.441l-6.924 26.086c-9.274-4.117-23.551-9.181-43.404-9.181-24.699 0-33.499 12.417-33.499 24.041 0 14.566 15.142 22.779 43.115 32.868 36.371 12.836 50.54 28.604 50.54 56.224 0 28.299-20.386 49.251-53.205 54.679a5.438 5.438 0 00-4.553 5.363v28.174h-21.424v-25.558a5.44 5.44 0 00-5.194-5.434c-20.625-.925-38.617-6.396-49.37-11.466l7.016-27.386c11.406 5.412 29.447 11.873 50.594 11.873 22.534 0 37.089-10.079 37.089-25.672-.011-17.176-15.458-25.84-38.639-33.569z" data-original="#010002" class="active-path" data-old_color="#010002" fill="#00AEEF"/>
</svg>