<svg width="616" height="188" xmlns="http://www.w3.org/2000/svg"><path d="M292.89 94.19c9.152 0 16.595 7.336 16.767 16.448l.003.322v49.58h28.59c9.252 0 16.766 7.407 16.937 16.628l.003.322v10.16h-76.77V94.19h14.47zm-175.41 0c9.152 0 16.595 7.336 16.767 16.448l.003.322v49.58h28.59c9.243 0 16.765 7.407 16.937 16.628l.003.322v10.16h-76.77V94.19h14.47zm281.09-.01v93.46h-30.84V94.18h30.84zm44.99 0l33.64 36.18 4.01 5.21V94.18h30.04v93.46h-23.36l-36.32-39.25-4.01-5.21v44.46h-30.3V94.18h26.3zm171.73-.01v10.16c0 9.255-8.242 16.77-18.48 16.937l-.35.003h-31.79v7.88h32.66v7.05c0 8.987-8.005 16.283-17.946 16.447l-.344.003h-14.37v7.75h12.3v9.67c0 9.6-7.692 17.391-17.24 17.567l-.33.003h-29.47V94.18h76.5v-.01h8.86zm-416.02.01l14.82 29.11 3.07 6.94 3.07-6.94 14.82-29.11h30.84l-34.71 68.09v25.37h-30.31v-25.37l-34.71-68.09h33.11zm-113.2 0v93.46H69.98c-10.184 0-18.462-7.342-18.647-16.459l-.003-.311v-18.21H36.96c-9.985 0-18.104-7.203-18.287-16.141l-.003-.309v-7.05h32.66v-7.88H19.55c-10.283 0-18.64-7.41-18.827-16.625l-.003-.315V94.18h85.35zm264.26-73.25S209.26 90.95 160.84 54.08l.028-.054c.594-1.148 10.55-20.19 14.032-13.876 7.04 12.83 40.27 24.51 175.43-19.22zm43.08-19.69l6.7 5.25 18.78-3.98c1.19-.25 1.55-.18 1.08.22l-4.1 3.43c-.29.24-.78.45-1.49.63-.07.02-.22.05-.45.1l-46.28 9.85c-1 .2-1.71.25-2.14.13l-27.86-7.85c-1.41-.4-1.56-.79-.4-1.17.16-.05.49-.13.98-.24l18.21-3.85c2.07-.44 3.64-.32 4.65.33l10.38 6.61c1.42.9 3.13 1.21 4.78.86l10.19-2.16-7.72-5.05c-.22-.47.25-.89 1.42-1.23.16-.05.45-.12.87-.21L391.16.76l.024-.008c.163-.053 1.149-.325 2.226.488z" fill="#FFF" fill-rule="nonzero"/></svg>