<svg width="110" height="100" xmlns="http://www.w3.org/2000/svg">
  <g fill="none" fill-rule="evenodd">
    <path d="M0 0h110v100H0z"/>
    <path d="M25.352 15.65h-4.469V7.692C20.883 6.205 19.71 5 18.262 5H16v15h12v-1.631c0-1.502-1.186-2.719-2.648-2.719zM0 1.631C0 3.133 1.383 4.35 3.09 4.35h5.212v1.264H2.946v1.132c0 1.458 1.343 2.64 3 2.64h2.356v2.922c0 1.487 1.37 2.692 3.06 2.692H14V0H0v1.631zM89.352 64.65h-4.469v-7.958c0-1.487-1.174-2.692-2.621-2.692H80v15h12v-1.631c0-1.502-1.186-2.719-2.648-2.719zM64 50.631c0 1.502 1.383 2.719 3.09 2.719h5.212v1.264h-5.356v1.132c0 1.458 1.343 2.64 3 2.64h2.356v2.922c0 1.487 1.37 2.692 3.06 2.692H78V49H64v1.631z" fill-opacity=".08" fill="#FFF"/>
  </g>
</svg>