<svg width="528" height="528" xmlns="http://www.w3.org/2000/svg">
  <path d="M333.202 7.914c10.03-10.03 26.29-10.131 36.445-.3l.306.3 37.533 37.533a8.293 8.293 0 010 11.73c-17.462 17.462-17.462 45.875 0 63.337 17.462 17.462 45.875 17.462 63.337 0a8.293 8.293 0 0111.547-.177l.183.177 37.533 37.533c10.03 10.031 10.131 26.29.3 36.445l-.3.306-325.288 325.288c-10.03 10.03-26.29 10.131-36.445.3l-.306-.3-37.533-37.533a8.293 8.293 0 010-11.73c17.462-17.462 17.462-45.875 0-63.337-17.462-17.462-45.875-17.462-63.337 0a8.293 8.293 0 01-11.547.177l-.183-.177-37.533-37.533c-10.03-10.031-10.131-26.29-.3-36.445l.3-.306L333.202 7.914zm-62.926 86.384L19.643 344.931c-3.6 3.6-3.663 9.42-.19 13.098l.19.195 32.064 32.063c24.038-18.296 58.595-16.471 80.536 5.47 21.722 21.722 23.728 55.809 6.012 79.812l-.542.724 32.063 32.064c3.6 3.6 9.42 3.663 13.098.19l.195-.19 250.632-250.632-.208-.182-.203-.19-12.51-12.51a8.293 8.293 0 010-11.73 8.293 8.293 0 0111.546-.176l.182.176 12.511 12.511.19.203.182.208 62.966-62.966c3.6-3.6 3.663-9.42.19-13.098l-.19-.195-32.064-32.063c-24.038 18.296-58.594 16.472-80.536-5.47-21.722-21.722-23.727-55.81-6.012-79.812l.542-.724-32.063-32.064c-3.6-3.6-9.42-3.663-13.098-.19l-.195.19-62.965 62.965.207.182.203.19 12.511 12.51a8.293 8.293 0 010 11.73 8.293 8.293 0 01-11.547.177l-.182-.177-12.51-12.511c-.133-.132-.25-.272-.372-.41zm-12.14 63.749c6.606-6.606 17.307-6.682 24.008-.228l.232.228 87.577 87.577c6.606 6.607 6.682 17.308.228 24.008l-.228.233-143.877 143.877c-6.607 6.606-17.308 6.682-24.008.228l-.232-.228-87.578-87.578c-6.606-6.606-6.682-17.307-.228-24.008l.228-.232 143.877-143.877zm125.11 37.533a8.293 8.293 0 0111.547-.176l.182.176 12.511 12.511a8.293 8.293 0 010 11.73 8.293 8.293 0 01-11.547.176l-.182-.177-12.511-12.51a8.293 8.293 0 010-11.73zm-113.381-25.804L125.987 313.653a.554.554 0 00-.058.714l.058.068 87.578 87.578a.554.554 0 00.713.058l.069-.058 143.877-143.878a.554.554 0 00.058-.713l-.058-.068-87.578-87.578a.554.554 0 00-.781 0zm-68.03 169.681l18.767-18.766a8.293 8.293 0 0111.73 0 8.293 8.293 0 01.176 11.547l-.177.182-18.766 18.766a8.293 8.293 0 01-11.73 0 8.293 8.293 0 01-.176-11.547l.177-.182 18.766-18.766zm93.834-93.833a8.293 8.293 0 0111.729 0 8.293 8.293 0 010 11.73l-50.044 50.044a8.293 8.293 0 01-11.73 0 8.293 8.293 0 010-11.73zm50.044-87.577a8.293 8.293 0 0111.547-.177l.182.177 12.511 12.511a8.293 8.293 0 010 11.73 8.293 8.293 0 01-11.547.176l-.182-.177-12.511-12.51a8.293 8.293 0 010-11.73zm-75.067 62.555a8.293 8.293 0 0111.73 0 8.293 8.293 0 01.176 11.547l-.176.182-93.833 93.833a8.293 8.293 0 01-11.73 0 8.293 8.293 0 01-.176-11.547l.177-.182 93.832-93.833zm37.534-100.088a8.293 8.293 0 0111.547-.177l.182.177 12.51 12.51a8.293 8.293 0 010 11.73 8.293 8.293 0 01-11.546.177l-.182-.177-12.511-12.511a8.293 8.293 0 010-11.73z" fill="#00AEEF" fill-rule="nonzero"/>
</svg>