<?xml version="1.0" encoding="UTF-8"?>
<svg width="59px" height="42px" viewBox="0 0 59 42" version="1.1" xmlns="http://www.w3.org/2000/svg" xmlns:xlink="http://www.w3.org/1999/xlink">
    <!-- Generator: Sketch 53.2 (72643) - https://sketchapp.com -->
    <title>Flyline_logo_1030 (dragged) 2</title>
    <desc>Created with Sketch.</desc>
    <g id="Page-1" stroke="none" stroke-width="1" fill="none" fill-rule="evenodd">
        <g id="Trips" transform="translate(-109.000000, -90.000000)">
            <g id="Group" transform="translate(-47.000000, 0.000000)">
                <g id="Flyline_logo_1030-(dragged)-2" transform="translate(156.000000, 90.000000)">
                    <path d="M53.2627456,32.720107 L43.5806104,32.720107 L43.5806104,15.7427815 C43.5806104,12.5712091 41.0373622,10 37.8999934,10 L33,10 L33,42 L59,42 L59,38.5204378 C59,35.316765 56.4310075,32.720107 53.2627456,32.720107" id="Fill-1" fill="#00A3DA"></path>
                    <path d="M0,3.47956224 C0,6.68294579 2.86484588,9.279893 6.39919846,9.279893 L17.1982584,9.279893 L17.1982584,11.97719 L6.10275592,11.97719 L6.10275592,14.3907892 C6.10275592,17.501342 8.88466677,20.0230992 12.3162832,20.0230992 L17.1982584,20.0230992 L17.1982584,26.2572185 C17.1982584,29.4287909 20.034694,32 23.5343229,32 L29,32 L29,2.84217094e-14 L0,2.84217094e-14 L0,3.47956224 Z" id="Fill-3" fill="#1A1919"></path>
                </g>
            </g>
        </g>
    </g>
</svg>